<svg width="60" height="60" viewBox="0 0 60 60" fill="none" xmlns="http://www.w3.org/2000/svg">
<path fill-rule="evenodd" clip-rule="evenodd" d="M20.7529 8.125H39.2482C41.4945 8.12493 43.3675 8.12488 44.8545 8.32478C46.4237 8.5358 47.8407 8.99998 48.9795 10.1387C50.1182 11.2773 50.5825 12.6943 50.7935 14.2638C50.9932 15.7508 50.9932 17.6238 50.9932 19.87V38.08L54.7747 41.983L54.7842 41.9923L54.802 42.01L54.8215 42.03L54.8355 42.0443L54.8602 42.0703L54.887 42.0985L54.8975 42.11L54.9177 42.1323L54.94 42.1578L54.9605 42.182C54.967 42.19 54.9777 42.203 54.9907 42.2195C55.9195 43.2968 56.7482 44.905 56.8617 46.5128L56.8627 46.5223C56.8655 46.5483 56.8672 46.5693 56.8682 46.5813L56.8702 46.613L56.872 46.6465L56.873 46.6765L56.8735 46.6923L56.874 46.7313L56.8742 46.7668V46.787L56.874 46.8148L56.8737 46.8398L56.8732 46.8518C56.8732 46.878 56.8732 46.906 56.8735 46.9347C56.874 47.2617 56.8745 47.7323 56.8617 47.9335C56.6435 51.389 53.8895 54.143 50.434 54.3613C50.216 54.375 49.973 54.375 49.6575 54.375H10.3434C10.028 54.375 9.78505 54.375 9.56698 54.3613C6.11148 54.143 3.35753 51.389 3.13918 47.9335C3.12655 47.7338 3.1273 47.2673 3.12783 46.941C3.12788 46.9098 3.12793 46.88 3.12795 46.8515L3.1276 46.8398L3.12715 46.8148L3.12695 46.787V46.7668L3.1272 46.7313L3.12778 46.6923L3.12815 46.6765L3.1292 46.6465L3.1309 46.613L3.13308 46.5813C3.134 46.5693 3.13573 46.5483 3.13855 46.5223L3.13958 46.5128C3.25285 44.9053 4.08155 43.2968 5.01038 42.2195C5.0234 42.2028 5.03413 42.1898 5.0407 42.182L5.0612 42.1578L5.08338 42.1323L5.1035 42.11L5.11418 42.0985L5.1408 42.0703L5.16545 42.0443L5.17943 42.03L5.19895 42.01L5.21673 41.9925L5.22628 41.983L9.00785 38.08V19.87C9.00778 17.6238 9.00773 15.7508 9.20763 14.2638C9.41865 12.6943 9.88283 11.2773 11.0215 10.1387C12.1602 8.99998 13.5772 8.5358 15.1467 8.32478C16.6336 8.12488 18.5067 8.12493 20.7529 8.125ZM11.6769 40.7143L7.89165 44.6213C7.32205 45.2562 6.90678 46.188 6.878 46.8158C6.87798 46.87 6.87793 46.9248 6.87785 46.9798C6.87773 47.113 6.87758 47.2475 6.87798 47.373C6.87828 47.466 6.87888 47.5465 6.87988 47.6108C6.88063 47.6603 6.88148 47.6865 6.88178 47.6955C6.981 49.266 8.23278 50.5195 9.80345 50.6188C9.887 50.624 10.0006 50.625 10.4022 50.625H49.5987C50.0005 50.625 50.114 50.624 50.1975 50.6188C51.7682 50.5195 53.02 49.2678 53.1192 47.697C53.1187 47.706 53.12 47.6838 53.1212 47.6103C53.1222 47.546 53.1227 47.4653 53.1232 47.3725C53.1235 47.2435 53.1235 47.1045 53.1232 46.9675C53.1232 46.9165 53.1232 46.8657 53.1232 46.8158C53.0945 46.1883 52.679 45.2562 52.1092 44.6213L48.324 40.7143H11.6769ZM47.2432 36.9643V20C47.2432 17.59 47.2392 15.9711 47.0767 14.7635C46.9217 13.6098 46.6537 13.1161 46.328 12.7903C46.002 12.4645 45.5082 12.1965 44.3547 12.0414C43.147 11.879 41.5282 11.875 39.1182 11.875H20.8829C18.4728 11.875 16.8539 11.879 15.6464 12.0414C14.4927 12.1965 13.999 12.4645 13.6732 12.7903C13.3474 13.1161 13.0793 13.6098 12.9242 14.7635C12.7619 15.9711 12.7579 17.59 12.7579 20V36.9643H47.2432ZM54.175 45.0595C54.1937 45.0535 54.2117 45.0475 54.229 45.0413C54.236 45.0373 54.243 45.0333 54.2502 45.029C54.2252 45.0395 54.2 45.0498 54.175 45.0595ZM54.2912 45.0648C54.306 45.0573 54.3205 45.0503 54.3347 45.0438C54.3412 45.0418 54.3477 45.04 54.3545 45.0383C54.3332 45.047 54.3122 45.0558 54.2912 45.0648ZM5.71068 45.0648C5.69608 45.0575 5.68185 45.0505 5.66805 45.0443C5.66175 45.0425 5.65533 45.0408 5.64875 45.039C5.6695 45.0475 5.69015 45.056 5.71068 45.0648ZM5.82793 45.06C5.802 45.05 5.77608 45.0395 5.75025 45.0288C5.7577 45.033 5.76505 45.0373 5.77228 45.0413C5.78988 45.0478 5.80848 45.054 5.82793 45.06ZM21.8755 46.25C21.8755 45.2145 22.715 44.375 23.7505 44.375H36.2505C37.286 44.375 38.1255 45.2145 38.1255 46.25C38.1255 47.2855 37.286 48.125 36.2505 48.125H23.7505C22.715 48.125 21.8755 47.2855 21.8755 46.25Z" fill="#EC910F"/>
<path d="M31.875 16.875C31.875 17.9106 31.0355 18.75 30 18.75C28.9645 18.75 28.125 17.9106 28.125 16.875C28.125 15.8395 28.9645 15 30 15C31.0355 15 31.875 15.8395 31.875 16.875Z" fill="#EC910F"/>
</svg>
