<svg width="40" height="40" viewBox="0 0 40 40" fill="none" xmlns="http://www.w3.org/2000/svg">
<path d="M24.2363 9.12C26.2296 7.42 28.3346 4.87333 28.3346 1.66667V0H11.668V1.66667C11.668 4.87333 13.773 7.41833 15.7663 9.12C7.92464 11.915 1.66797 21.8733 1.66797 30C1.66797 35.515 6.15297 40 11.668 40H28.3346C33.8496 40 38.3346 35.515 38.3346 30C38.3346 21.8733 32.078 11.915 24.2363 9.12ZM15.3463 3.33333H24.6513C23.783 5.42667 21.5013 7.18333 20.013 8.08667C18.7596 7.32 16.2613 5.56667 15.348 3.33333H15.3463ZM28.3346 36.6667H11.668C7.9913 36.6667 5.0013 33.6767 5.0013 30C5.0013 21.3983 12.6513 11.695 19.998 11.695C27.3446 11.695 35.0013 21.4 35.0013 30C35.0013 33.6767 32.0113 36.6667 28.3346 36.6667ZM16.668 21.6667C16.668 22.2967 17.1196 22.83 17.7413 22.9333L22.8113 23.7783C25.0463 24.15 26.6696 26.0667 26.6696 28.3333C26.6696 31.09 24.4263 33.3333 21.6696 33.3333V35H18.3363V33.3333C15.5796 33.3333 13.3363 31.09 13.3363 28.3333H16.6696C16.6696 29.2517 17.418 30 18.3363 30H21.6696C22.588 30 23.3363 29.2517 23.3363 28.3333C23.3363 27.7033 22.8846 27.17 22.263 27.0667L17.193 26.2217C14.958 25.85 13.3346 23.9333 13.3346 21.6667C13.3346 18.91 15.578 16.6667 18.3346 16.6667V15H21.668V16.6667C24.4246 16.6667 26.668 18.91 26.668 21.6667H23.3346C23.3346 20.7483 22.5863 20 21.668 20H18.3346C17.4163 20 16.668 20.7483 16.668 21.6667Z" fill="#EC910F"/>
</svg>
