<svg width="63" height="42" viewBox="0 0 63 42" fill="none" xmlns="http://www.w3.org/2000/svg">
<path d="M9.0603 20.6686V34C9.0603 35.335 10.1425 36.4172 11.4775 36.4172H11.5H14.934C15.7544 39.21 18.3195 41.25 21.3656 41.25C24.4101 41.25 26.9934 39.2115 27.7982 36.4172H44.6621C45.4825 39.21 48.0475 41.25 51.0936 41.25C54.1382 41.25 56.7214 39.2115 57.5263 36.4172H60.6522C61.5215 36.4172 62.2397 35.6989 62.2397 34.8297V23.9023C62.2397 22.7573 61.8654 21.6436 61.1738 20.7311L57.7154 16.1681C56.7229 14.8586 55.1745 14.0893 53.5314 14.0893H46.6L46.6 12C46.6 10.0908 45.0523 8.54313 43.1431 8.54313H20.568C19.5425 4.08889 15.5493 0.75 10.7905 0.75C5.24891 0.75 0.75 5.24891 0.75 10.7905C0.75 15.7287 4.35389 19.8484 9.0603 20.6686ZM21.3656 38.075C19.4172 38.075 17.8349 36.4928 17.8349 34.5444C17.8349 32.5959 19.4172 31.0137 21.3656 31.0137C23.314 31.0137 24.8962 32.5959 24.8962 34.5444C24.8962 36.492 23.2969 38.075 21.3656 38.075ZM51.0936 38.075C49.1452 38.075 47.563 36.4928 47.563 34.5444C47.563 32.5959 49.1452 31.0137 51.0936 31.0137C53.042 31.0137 54.6243 32.5959 54.6243 34.5444C54.6243 36.4928 53.042 38.075 51.0936 38.075ZM57.4209 22.6314H53.0388C52.6246 22.6314 52.2888 22.2956 52.2888 21.8814V18.0321C52.2888 17.6179 52.6246 17.2821 53.0388 17.2821H54.2641C54.8423 17.2821 55.3831 17.5677 55.7092 18.0452L58.0402 21.4584C58.3802 21.9562 58.0237 22.6314 57.4209 22.6314ZM49.1138 18.0321V24.2189C49.1138 25.0881 49.8321 25.8064 50.7013 25.8064H58.3148C58.729 25.8064 59.0648 26.1422 59.0648 26.5564V32.4922C59.0648 32.9064 58.729 33.2422 58.3148 33.2422H57.6692C57.0652 30.1592 54.3366 27.8387 51.0936 27.8387C49.3681 27.8387 47.7882 28.4949 46.6 29.574V18.0321C46.6 17.6179 46.9358 17.2821 47.35 17.2821H48.3638C48.778 17.2821 49.1138 17.6179 49.1138 18.0321ZM43.425 33.26H27.9412C27.3371 30.1771 24.6086 27.8566 21.3656 27.8566C18.1226 27.8566 15.394 30.1771 14.79 33.26H12.9853C12.5711 33.26 12.2353 32.9242 12.2353 32.51V20.7281C16.7904 20.0633 20.3513 16.3471 20.7759 11.736H42.675C43.0892 11.736 43.425 12.0717 43.425 12.486V33.26ZM10.7905 3.94282C14.5757 3.94282 17.6559 7.02305 17.6559 10.8083C17.6559 14.5935 14.5757 17.6738 10.7905 17.6738C7.00521 17.6738 3.92499 14.5935 3.92499 10.8083C3.92499 7.02305 7.00521 3.94282 10.7905 3.94282Z" fill="#EC910F" stroke="#EC910F" stroke-width="0.5"/>
<path d="M8.83105 14.0167C9.12707 14.3127 9.52927 14.4823 9.95299 14.4823C10.3767 14.4823 10.7789 14.3127 11.0749 14.0167L15.2657 9.82592C15.8805 9.21112 15.8805 8.19683 15.2657 7.58204C14.651 6.96724 13.6367 6.96724 13.0219 7.58204L9.95299 10.6509L8.56044 9.25837C7.94565 8.64357 6.93136 8.64357 6.31657 9.25837C5.70177 9.87316 5.70177 10.8874 6.31657 11.5022L8.83105 14.0167Z" fill="#EC910F" stroke="#EC910F" stroke-width="0.5"/>
</svg>
