<svg width="527" height="400" viewBox="0 0 527 400" fill="none" xmlns="http://www.w3.org/2000/svg">
<path d="M87.998 350H521.003" stroke="#465D7A" stroke-width="5" stroke-linecap="round"/>
<path d="M492 168H440C435.582 168 432 171.582 432 176V337C432 341.418 435.582 345 440 345H492C496.418 345 500 341.418 500 337V176C500 171.582 496.418 168 492 168Z" fill="#9B9BAF"/>
<path d="M492 172H440C435.582 172 432 175.582 432 180V341C432 345.418 435.582 349 440 349H492C496.418 349 500 345.418 500 341V180C500 175.582 496.418 172 492 172Z" fill="#D1DBED"/>
<path d="M492 172H440C435.582 172 432 175.582 432 180V341C432 345.418 435.582 349 440 349H492C496.418 349 500 345.418 500 341V180C500 175.582 496.418 172 492 172Z" fill="#D1DBED"/>
<path d="M448.483 199H482.553C483.925 199 485.037 199.714 485.037 200.596C485.037 201.477 483.925 202.192 482.553 202.192H448.483C447.111 202.192 445.999 201.477 445.999 200.596C445.999 199.714 447.111 199 448.483 199Z" fill="#9B9BAF"/>
<path d="M448.483 210.192H482.553C483.925 210.192 485.037 210.906 485.037 211.788C485.037 212.669 483.925 213.384 482.553 213.384H448.483C447.111 213.384 445.999 212.669 445.999 211.788C445.999 210.906 447.111 210.192 448.483 210.192Z" fill="#9B9BAF"/>
<path d="M471 287.5C471 289.985 468.985 292 466.5 292C464.015 292 462 289.985 462 287.5C462 285.015 464.015 283 466.5 283C468.985 283 471 285.015 471 287.5ZM463 287.5C463 289.433 464.567 291 466.5 291C468.433 291 470 289.433 470 287.5C470 285.567 468.433 284 466.5 284C464.567 284 463 285.567 463 287.5Z" fill="#9B9BAF"/>
<rect x="465" y="282" width="3" height="3" fill="#D1DBED"/>
<rect x="466" y="282" width="1" height="3" fill="#9B9BAF"/>
<path d="M240.328 305.498L283.985 304.361L291.754 342.899H233.936L240.328 305.498Z" fill="#ADADBF"/>
<path d="M240.618 303.8L284.169 305.274L288.779 328.146L236.991 325.026L240.618 303.8Z" fill="#9B9BAF"/>
<path d="M218.44 341.919H307.251C309.272 341.919 310.91 343.557 310.91 345.578C310.91 347.599 309.272 349.238 307.251 349.238H218.44C216.419 349.238 214.78 347.599 214.78 345.578C214.78 343.557 216.419 341.919 218.44 341.919Z" fill="#ECF2FF"/>
<path d="M121.958 98.8799H403.734C410.576 98.8799 416.123 104.165 416.123 110.683V302.284C416.123 308.803 410.576 314.087 403.734 314.087H121.958C115.116 314.087 109.569 308.803 109.569 302.284V110.684C109.569 104.165 115.116 98.8799 121.958 98.8799Z" fill="#D1DBED"/>
<path d="M359.75 314.088H230.499L192.834 98.8799H316.921L359.75 314.088Z" fill="#ECF2FF"/>
<path d="M121.958 311.063H403.734C410.576 311.063 416.123 305.516 416.123 298.674V301.699C416.123 308.541 410.576 314.088 402.654 314.784H120.878C115.116 314.088 109.569 308.541 109.569 301.699V298.674C109.569 305.516 115.116 311.063 121.958 311.063Z" fill="#ADADBF"/>
<path d="M121.958 98.8799H403.734C410.576 98.8799 416.123 104.165 416.123 110.683V279.5H109.569V110.684C109.569 104.165 115.116 98.8799 121.958 98.8799Z" fill="#514C4D"/>
<path d="M120.231 107.664H405.465V279.501H120.231V107.664Z" fill="#443C3C"/>
<path d="M122 109H404V278H122V109Z" fill="#EC910F"/>
<path d="M245.809 295.762H279.879C281.251 295.762 282.363 296.476 282.363 297.358C282.363 298.239 281.251 298.954 279.879 298.954H245.809C244.437 298.954 243.325 298.239 243.325 297.358C243.325 296.476 244.437 295.762 245.809 295.762Z" fill="#9B9BAF"/>
<path d="M258.552 57.1271C267.989 49.5 280.989 54.5 289.489 59C299.989 67 304.019 73.345 295.489 91.5L246.896 73.0271C246.896 73.0271 248.234 69.2691 258.552 57.1271Z" fill="#40447E"/>
<path d="M262.487 78.5223L295.487 91.5C295.487 91.5 302.487 80.5 299.487 71C296.487 61.5 289.487 59 289.487 59C287.115 69.3065 276.277 77.329 262.487 78.5223Z" fill="#32345B"/>
<path d="M273.151 67.5939C288.076 68.6429 295.488 91.5 295.488 91.5C295.488 91.5 291.779 107.231 279.357 118.158L275.554 116.84C275.554 116.84 258.227 66.5449 273.151 67.5939Z" fill="#351E1B"/>
<path d="M186.256 200.672C186.256 200.672 176.462 212.641 172.914 214.315C169.367 215.989 156.699 207.408 156.699 207.408L146.225 241.541C146.225 241.541 169.176 262.072 184.01 260.432C198.844 258.792 217.971 226.674 217.971 226.674L186.256 200.672Z" fill="#E79B69"/>
<path d="M339.55 203.92C339.55 203.92 346.017 215.187 350.101 216.743C354.185 218.299 367.944 201.718 367.944 201.718L381.717 233.334C381.717 233.334 361.127 262.422 344.119 261.276C327.111 260.131 304.399 229.265 304.399 229.265L339.55 203.92Z" fill="#E79B69"/>
<path d="M218.5 147.5L216.242 239.539C186.191 237.035 172 206.149 172 206.149C172 206.149 186.415 178.433 218.5 147.5Z" fill="#EDE4C9"/>
<path d="M223.023 149.54L218.208 240.428C211.349 239.857 205.325 237.797 200.099 234.973C198.182 224.631 198.096 211.92 200.294 198.454C203.963 175.972 212.991 157.486 223.023 149.54Z" fill="#E0D0A3"/>
<path d="M311.702 279.662L214 279C214 279 201 182 208 158.5C219 142 250.797 127.973 257.86 126.903C271.633 124.816 312.411 146.987 317.002 154.5C321.593 162.013 309.197 227.073 309.197 227.073L311.702 279.662Z" fill="#EDE4C9"/>
<path d="M349.676 203.729C341.746 231.276 317.955 251.623 317.955 251.623C317.955 251.623 297.215 212.378 295.417 192.773C292.287 158.653 306.5 146 306.5 146C321.897 155.313 337.116 179.668 349.676 203.729Z" fill="#EDE4C9"/>
<path d="M324.936 234.19C334.535 231.59 336.79 209.075 329.973 183.9C326.339 170.48 318.778 157.888 313 150.5C326 161.5 339.134 183.534 349.676 203.729C341.746 231.276 317.955 251.623 317.955 251.623C317.955 251.623 298.756 215.285 295.707 195.076C302.656 219.334 315.563 236.728 324.936 234.19Z" fill="#E0D0A3"/>
<path d="M280 132C270.711 128.722 255.488 127 255.488 127C255.488 127 243.931 131.291 236.988 135C229.5 139 222.5 144.5 222.5 144.5C222.5 144.5 232.82 151.906 239.488 153.5C247.879 155.505 253.866 156.297 262.488 156C270.381 155.728 274.309 154.346 281.988 152.5C288.773 150.869 304.5 144.5 304.5 144.5C304.5 144.5 288.5 135 280 132Z" fill="#E0D0A3"/>
<path d="M173.511 213.973C178.937 231.085 181.953 245.649 165.675 255.248C145.961 245.299 124.425 222.901 119.83 207.107L136.485 189.017L173.511 213.973Z" fill="#EDB984"/>
<path d="M136.485 189.017L147.839 196.669C144.3 196.213 143.459 198.484 141.34 200.368C134.418 206.522 137.445 222.027 150.785 237.033C156.939 243.955 163.742 249.183 169.973 252.233C168.718 253.285 167.296 254.293 165.675 255.249C145.961 245.3 124.425 222.902 119.83 207.108L136.485 189.017Z" fill="#E79B69"/>
<path d="M348.217 215.527C332.774 232.269 339.809 248.349 358.015 253.634C377.278 242.418 393.565 217.931 396.455 205.959L378.9 185.752L348.217 215.527Z" fill="#EDB984"/>
<path d="M348.216 215.527L350.928 212.895C347.706 225.092 348.856 235.204 354.852 238.64C363.864 243.804 380.352 231.966 391.679 212.198C393.089 209.737 394.352 207.269 395.466 204.824L396.453 205.96C393.563 217.931 377.692 245.396 358.429 256.611C340.224 251.326 332.773 232.269 348.216 215.527Z" fill="#E79B69"/>
<path d="M59.9985 109.288V103.314L65.1616 102.258C65.4726 101.168 65.8996 100.128 66.4406 99.158L63.5396 94.766L67.7646 90.541L72.1566 93.442C73.1276 92.902 74.1665 92.475 75.2575 92.163L76.3135 87H82.2875L83.3435 92.163C84.4335 92.474 85.4735 92.901 86.4435 93.442L90.8365 90.541L95.0605 94.766L92.1595 99.158C92.6995 100.129 93.1265 101.168 93.4385 102.258L98.6016 103.314V109.288L93.4385 110.344C93.1275 111.434 92.7005 112.474 92.1595 113.444L95.0605 117.836L90.8365 122.061L86.4435 119.16C85.4725 119.7 84.4335 120.127 83.3435 120.439L82.2875 125.602H76.3135L75.2575 120.439C74.1675 120.128 73.1276 119.701 72.1566 119.16L67.7646 122.061L63.5396 117.836L66.4406 113.444C65.9006 112.473 65.4726 111.434 65.1616 110.344L59.9985 109.288ZM79.3005 117.254C85.3495 117.254 90.2535 112.35 90.2535 106.301C90.2535 100.252 85.3495 95.348 79.3005 95.348C73.2515 95.348 68.3475 100.252 68.3475 106.301C68.3475 112.35 73.2515 117.254 79.3005 117.254Z" fill="#465D7A"/>
<path d="M82.7623 76.318V71.408L87.0053 70.54C87.2613 69.644 87.6123 68.79 88.0563 67.992L85.6723 64.382L89.1443 60.91L92.7543 63.294C93.5523 62.85 94.4073 62.499 95.3023 62.243L96.1703 58H101.08L101.948 62.243C102.844 62.499 103.698 62.85 104.496 63.294L108.106 60.91L111.578 64.382L109.194 67.992C109.638 68.79 109.989 69.644 110.245 70.54L114.488 71.408V76.318L110.245 77.186C109.989 78.082 109.638 78.936 109.194 79.734L111.578 83.344L108.106 86.816L104.496 84.432C103.698 84.876 102.844 85.227 101.948 85.483L101.08 89.726H96.1703L95.3023 85.483C94.4063 85.227 93.5523 84.876 92.7543 84.432L89.1443 86.816L85.6723 83.344L88.0563 79.734C87.6123 78.936 87.2613 78.082 87.0053 77.186L82.7623 76.318ZM98.6253 80.837C102.477 80.837 105.599 77.715 105.599 73.863C105.599 70.011 102.477 66.889 98.6253 66.889C94.7733 66.889 91.6513 70.011 91.6513 73.863C91.6513 77.715 94.7743 80.837 98.6253 80.837Z" fill="#465D7A"/>
<path d="M121.203 170.869C124.404 172.75 132.421 177.892 138.734 188.04C141.072 191.799 140.344 196.633 137.043 199.665L133.137 203.254C130.274 205.884 123.197 208.204 118.375 206.018C113.314 203.723 110.363 196.512 108.096 192.453C102.154 181.813 117.248 168.544 121.203 170.869Z" fill="#E79B69"/>
<path d="M279.98 133.372L279.145 98.9389L254.311 98.7299L247.633 130.033C249.72 146.728 272.676 149.65 279.98 133.372Z" fill="#E79B69"/>
<path d="M286.5 135L280.398 128.989C280.398 128.989 263.611 142.83 257.234 141.302C253.082 140.307 247.426 127.32 247.426 127.32L240.539 133.163L240.788 150.575L254.955 148.63L265.511 157.519L286.5 135Z" fill="white"/>
<path d="M283.172 82.1699C282.724 117.165 271.499 129 271.499 129C271.499 129 255.378 134.041 242.999 130C230.619 125.959 226.999 117.5 226.999 117.5C226.999 117.5 234.52 103.075 235.363 93.5959C236.206 84.1169 236.348 65.9999 245.688 62.9109C255.027 59.8219 283.46 59.6569 283.172 82.1699Z" fill="#5A3A35"/>
<path d="M238.425 75.5729C238.081 75.5729 237.741 75.5929 237.399 75.6019C238.719 69.6109 241.082 64.4329 245.686 62.9099C255.025 59.8209 283.458 59.6559 283.17 82.1689C283.01 94.6169 280.785 105.94 277.987 115.378C275.607 92.9549 258.808 75.5729 238.425 75.5729Z" fill="#351E1B"/>
<path d="M281.376 93.9489C285.357 91.1759 289.241 92.0869 290.05 95.9839C290.859 99.8799 288.288 105.287 284.307 108.06C280.326 110.833 276.442 109.922 275.633 106.025C274.824 102.128 277.395 96.7219 281.376 93.9489Z" fill="#EDB984"/>
<path d="M239.504 40.0329C261.59 41.2719 289.18 67.752 295.488 91.5C285.45 74.047 250.576 60.9909 238.024 72.9649C238.024 72.9649 217.419 38.7939 239.504 40.0329Z" fill="#1D1E33"/>
<path d="M270.92 79.2769C270.92 79.2769 270.527 98.5119 267.069 102.655C263.55 106.87 237.623 100.454 237.417 97.3389C237.218 94.3309 239.78 77.8379 240.467 75.1399C243.073 64.9009 270.726 70.2869 270.92 79.2769Z" fill="#EDB984"/>
<path d="M242.769 78.0729C241.793 78.0729 240.829 78.1109 239.873 78.1679C240.12 76.7629 240.331 75.6729 240.467 75.1389C243.073 64.9009 270.726 70.2859 270.92 79.2769C270.92 79.2769 270.84 83.1389 270.442 87.7719C263.761 81.8389 253.846 78.0729 242.769 78.0729Z" fill="#E79B69"/>
<path d="M282.416 97.1279C284.923 95.2099 287.268 95.5499 287.653 97.8889C288.038 100.228 286.317 103.678 283.809 105.597C281.301 107.515 278.957 107.175 278.572 104.836C278.187 102.497 279.908 99.0459 282.416 97.1279Z" fill="#D27558"/>
<path d="M279.954 102.032C281.483 100.85 282.98 101.146 283.296 102.694C283.612 104.241 282.629 106.454 281.099 107.635C279.57 108.817 278.073 108.521 277.757 106.973C277.441 105.426 278.425 103.214 279.954 102.032Z" fill="#EDB984"/>
<path d="M238.304 42.2072C234.565 41.9984 232.079 42.8206 230.488 44.3008C231.731 41.4889 234.544 39.7366 239.843 40.0324C261.821 41.2583 289.211 68.003 295.488 91.5C294.323 89.4855 292.811 87.0334 291.05 85.1693C281.557 64.0825 257.807 43.2946 238.304 42.2072Z" fill="#32345B"/>
<path d="M409.899 182.85C414.561 179.984 414.61 177.759 413.775 175.51C412.948 173.281 411.56 171.856 406.939 174.578C402.208 177.366 398.925 181.562 399.716 183.91C400.515 186.279 405.124 185.785 409.899 182.85Z" fill="#E79B69"/>
<path d="M412.666 192.609C417.636 189.366 417.71 187.043 416.849 184.743C415.996 182.464 414.54 181.052 409.613 184.135C404.559 187.298 401.02 191.863 401.835 194.275C402.658 196.71 407.565 195.938 412.666 192.609Z" fill="#E79B69"/>
<path d="M416.466 202.393C421.229 199.175 421.242 196.756 420.344 194.331C419.455 191.928 418 190.41 413.279 193.466C408.441 196.597 405.116 201.232 405.968 203.769C406.83 206.332 411.583 205.692 416.466 202.393Z" fill="#E79B69"/>
<path d="M401.557 177.139C397.734 177.49 397.111 176.692 386.757 183.44C382.922 185.939 381.491 190.809 383.259 195.123L390.586 191.915C392.12 195.657 389.806 213.804 394.693 211.332C400.307 208.493 410.277 205.032 414.176 202.219C416.662 200.264 406.28 176.705 401.557 177.139Z" fill="#E79B69"/>
<path d="M385.288 179.183C380.716 179.254 377.312 186.366 377.609 194.756C377.895 202.818 375.912 212.16 380.051 212.333C384.251 212.508 393.668 203.218 393.697 194.939C393.727 186.314 389.933 179.112 385.288 179.183Z" fill="#EDB984"/>
<path d="M259.647 77.3909L269.105 81.3699C269.9 81.7039 270.274 82.6389 269.941 83.4579L268.684 86.5479C268.351 87.3679 267.435 87.7609 266.64 87.4269L257.182 83.4489C256.387 83.1139 256.013 82.1789 256.346 81.3599L257.603 78.2699C257.936 77.4499 258.851 77.0569 259.647 77.3909Z" fill="#5A3A35"/>
<path d="M239.748 89.9919C240.536 87.3759 242.422 85.5479 243.959 85.9079C245.496 86.2669 246.104 88.6789 245.315 91.2949C244.527 93.9109 244.538 89.359 243 89C241.463 88.639 238.959 92.6079 239.748 89.9919Z" fill="#5A4949"/>
<path d="M254.932 93.1768C255.209 90.4588 256.714 88.3059 258.291 88.3675C259.868 88.4281 260.923 90.6808 260.645 93.399C260.368 96.1171 259.515 91.6458 257.937 91.5854C256.36 91.5228 254.654 95.8951 254.932 93.1768Z" fill="#5A4949"/>
<path d="M237.95 75.9719L246.599 75.3269C247.327 75.2729 247.932 75.8649 247.952 76.6499L248.025 79.6119C248.044 80.3979 247.471 81.0789 246.743 81.1329L238.094 81.7779C237.367 81.8319 236.762 81.2399 236.742 80.4549L236.668 77.4929C236.649 76.7069 237.223 76.0259 237.95 75.9719Z" fill="#5A3A35"/>
<path d="M257.48 107.788C258.234 107.443 259.079 107.837 259.201 108.657V108.657C259.28 109.188 259.006 109.706 258.499 109.885C256.543 110.574 251.343 111.874 244.637 109.385C244.298 109.259 244.153 108.86 244.327 108.542V108.542C244.473 108.273 244.8 108.159 245.088 108.264C250.589 110.278 255.222 108.821 257.48 107.788Z" fill="#221311"/>
<path d="M139.739 179.531C143.715 181.467 150 193.383 146.339 200.577C142.821 207.489 128.842 205.932 132.172 198.702C135.641 191.169 135.699 177.564 139.739 179.531Z" fill="#EDB984"/>
<path d="M421.249 323.634L422.805 320.248L426.007 320.994C426.467 320.457 426.98 319.978 427.539 319.569L427.04 316.324L430.534 315.03L432.269 317.818C432.96 317.765 433.66 317.793 434.359 317.901L436.302 315.249L439.689 316.805L438.943 320.007C439.48 320.467 439.958 320.98 440.368 321.539L443.613 321.039L444.907 324.534L442.119 326.268C442.172 326.959 442.145 327.66 442.037 328.359L444.689 330.302L443.133 333.689L439.931 332.943C439.47 333.48 438.958 333.958 438.398 334.367L438.898 337.612L435.403 338.906L433.669 336.119C432.978 336.172 432.278 336.143 431.578 336.036L429.635 338.688L426.248 337.132L426.994 333.93C426.457 333.47 425.98 332.957 425.57 332.398L422.325 332.897L421.031 329.403L423.818 327.668C423.765 326.978 423.793 326.277 423.901 325.578L421.249 323.634ZM431.278 330.644C433.308 331.576 435.71 330.687 436.643 328.657C437.576 326.627 436.686 324.226 434.656 323.293C432.626 322.361 430.224 323.25 429.292 325.279C428.359 327.308 429.248 329.711 431.278 330.644Z" fill="#465D7A"/>
<path d="M249.433 102.876C247.076 103.392 244.343 102.282 244.02 99.7781C243.759 97.755 246.004 95 246.004 95L249.433 91C249.433 91 254.784 97.6788 252.385 100.811C251.517 101.944 250.79 102.579 249.433 102.876Z" fill="#E79B69"/>
<path d="M423.202 241.646L424.433 241.168L428.243 236.387C428.243 236.387 430.062 233.484 430.164 231.607C430.315 228.832 426.868 225.552 426.868 225.552C426.868 225.552 424.615 223.632 422.634 223.162L419.507 219.975C418.684 219.022 417.572 217.426 417.572 217.426L393.884 154.007C393.884 154.007 393.399 151.909 393.467 150.502C393.55 148.773 394.567 146.04 394.567 146.04C394.567 146.04 395.783 143.632 396.326 142.056C396.868 140.48 396.5 137.499 396.11 136.638C395.721 135.778 395.401 135.338 394.833 134.567C393.179 132.32 389.199 129.787 389.199 129.787L388.378 130.106L388.972 140.145C388.972 140.145 387.257 142.055 385.774 142.854C383.941 143.84 382.618 144.079 380.602 144.129C378.372 144.184 375.384 142.855 375.384 142.855L374.954 132.019L374.009 132.019C374.009 132.019 371.71 134.577 370.485 136.322C369.339 137.955 368.534 138.868 367.906 140.625C367.265 142.419 366.884 142.856 367.34 145.246C367.796 147.636 371.039 150.536 372.936 151.141C374.756 152.161 375.677 152.882 377.007 154.328C377.954 155.358 378.324 156.041 379.065 157.196C379.652 158.109 380.466 159.586 380.466 159.586L405.014 221.57C405.014 221.57 405.665 223.364 405.718 224.598C405.776 225.939 405.577 226.736 405.19 228.103L404.288 230.075C403.828 230.733 403.542 231.414 403.145 232.565C402.499 234.445 403.113 237.346 403.113 237.346C404.128 240.17 408.956 243.878 408.956 243.878L409.777 243.56L409.594 233.361C409.594 233.361 412.495 231.173 414.681 230.652C416.318 230.262 417.312 230.27 418.869 230.492C420.55 230.732 422.732 231.926 422.732 231.926L423.202 241.646Z" fill="#979797"/>
<path d="M423.835 240.948L425.066 240.47L428.876 235.689C428.876 235.689 430.695 232.786 430.797 230.908C430.948 228.134 427.501 224.853 427.501 224.853C427.501 224.853 425.248 222.934 423.267 222.464L420.14 219.277C419.317 218.324 418.205 216.728 418.205 216.728L394.517 153.309C394.517 153.309 394.032 151.21 394.1 149.804C394.183 148.075 395.2 145.342 395.2 145.342C395.2 145.342 396.416 142.933 396.958 141.358C397.501 139.782 397.132 136.801 396.743 135.94C396.354 135.079 396.034 134.639 395.466 133.869C393.811 131.622 389.832 129.089 389.832 129.089L389.011 129.407L389.604 139.446C389.604 139.446 387.89 141.357 386.406 142.156C384.574 143.142 383.251 143.381 381.235 143.431C379.005 143.486 376.017 142.157 376.017 142.157L375.586 131.321L374.642 131.321C374.642 131.321 372.343 133.879 371.118 135.624C369.972 137.257 369.167 138.17 368.539 139.926C367.898 141.721 367.517 142.157 367.973 144.548C368.429 146.938 371.671 149.838 373.568 150.443C375.389 151.463 376.31 152.184 377.64 153.63C378.587 154.659 378.956 155.343 379.698 156.498C380.285 157.41 381.099 158.888 381.099 158.888L405.647 220.872C405.647 220.872 406.297 222.666 406.351 223.899C406.408 225.241 406.21 226.038 405.823 227.405L404.92 229.377C404.461 230.035 404.174 230.716 403.778 231.867C403.131 233.747 403.746 236.647 403.746 236.647C404.761 239.471 409.589 243.18 409.589 243.18L410.41 242.861L410.227 232.663C410.227 232.663 413.128 230.475 415.314 229.954C416.951 229.563 417.945 229.572 419.502 229.794C421.183 230.034 423.365 231.228 423.365 231.228L423.835 240.948Z" fill="#D9D9D9"/>
<path d="M414.939 218.408L390.218 153.302C390.218 153.302 387.333 150.865 385.724 151.783C384.432 152.519 384.209 155.276 384.209 155.276L409.926 221.387C409.926 221.387 412.27 222.131 413.426 221.402C414.534 220.703 414.939 218.408 414.939 218.408Z" fill="#979797"/>
<path d="M408.503 192.004C403.501 193.7 403.424 195.828 404.288 198.179C405.145 200.509 406.609 202.195 411.566 200.627C416.641 199.022 420.188 195.733 419.371 193.297C418.547 190.838 413.627 190.267 408.503 192.004Z" fill="#EDB984"/>
<path d="M404.806 183.315C399.471 185.304 399.366 187.52 400.258 189.926C401.142 192.31 402.679 193.998 407.966 192.153C413.39 190.26 417.214 186.676 416.372 184.172C415.522 181.645 410.281 181.274 404.806 183.315Z" fill="#EDB984"/>
<path d="M401.741 173.135C396.627 175.146 396.586 177.469 397.516 180.004C398.437 182.515 399.97 184.305 405.037 182.44C410.229 180.529 413.828 176.829 412.948 174.196C412.058 171.537 406.983 171.073 401.741 173.135Z" fill="#EDB984"/>
<path d="M390.03 167.544C389.12 168.061 387.579 173.007 382.842 179.38C379.518 183.852 382.838 191.007 389.109 192.03C392.599 189.084 398.358 172.635 397.378 169.924C396.307 166.962 392.013 166.417 390.03 167.544Z" fill="#EDB984"/>
<path d="M163.668 123.591L160.591 121.974L156.668 126.999L153.811 134.057L141.553 157.369L144.095 158.706L156.486 135.463L161.283 129.426L163.668 123.591Z" fill="#979797"/>
<path d="M163.267 123.381L160.191 121.763L156.268 126.788L153.411 133.846L141.153 157.158L143.694 158.495L156.086 135.253L160.883 129.215L163.267 123.381Z" fill="#D9D9D9"/>
<path d="M140.98 157.001L138.859 156.487L134.31 164.327L133.716 164.483L131.677 168.359L140.506 173.001L142.544 169.125L142.336 168.547L146.082 160.285L144.391 158.794L140.98 157.001Z" fill="#231F20"/>
<path d="M139.911 157.575L140.847 156.93L144.659 158.935L144.592 160.036L140.681 167.475L135.999 165.014L139.911 157.575Z" fill="#434141"/>
<path d="M140.663 173.027L131.902 168.421C131.902 168.421 130.264 167.437 129.234 167.486C129.234 167.486 128.051 167.606 127.653 168.059C127.218 168.553 127.366 169.064 127.444 169.755C127.518 170.417 127.802 171.347 127.802 171.347L122.147 181.614C122.147 181.614 121.077 181.376 120.325 181.994L103.546 213.094C103.546 213.094 103.187 214.978 103.617 216.207C104.056 217.464 104.694 218.133 105.721 219.186C107.863 221.381 112.878 222.949 112.878 222.949C112.878 222.949 115.183 223.283 116.458 222.959C117.746 222.631 119.197 221.323 119.197 221.323L135.976 190.223C135.964 189.27 135.964 189.27 135.189 188.472L140.309 177.923C140.309 177.923 141.493 177.781 142.091 177.456C142.695 177.128 143.187 176.934 143.303 176.288C143.422 175.624 143.049 175.139 142.561 174.507L142.544 174.484C142 173.779 140.663 173.027 140.663 173.027Z" fill="#40447E"/>
<path d="M144.591 160.036L144.658 158.935L146.015 160.25L142.202 168.477L140.68 167.475L144.591 160.036Z" fill="#565656"/>
<path d="M142.325 168.407L140.078 167.159L141.789 168.395L142.213 169.089C141.703 170.28 140.723 172.589 140.879 172.293L142.571 169.075L142.325 168.407Z" fill="#817F7F"/>
<path d="M146.083 160.285L146.016 160.25L142.257 168.372L142.364 168.495L146.083 160.285Z" fill="#817F7F"/>
<path d="M106.513 217.519L124.686 182.956C124.686 182.956 125.608 183.337 125.899 183.785C126.163 184.192 126.06 184.889 126.06 184.889L109.251 216.857C109.251 216.857 108.592 217.485 108.028 217.615C107.508 217.735 106.513 217.519 106.513 217.519Z" fill="#32345B"/>
<path d="M116.546 222.794L134.719 188.232C134.719 188.232 135.641 188.612 135.932 189.06C136.197 189.467 136.094 190.164 136.094 190.164L119.284 222.132C119.284 222.132 118.625 222.76 118.062 222.89C117.542 223.01 116.546 222.794 116.546 222.794Z" fill="#32345B"/>
<path d="M115.074 222.02L133.247 187.458C133.247 187.458 132.348 186.881 131.784 186.88C131.272 186.879 130.742 187.35 130.742 187.35L113.933 219.319C113.933 219.319 113.808 220.228 114.047 220.78C114.269 221.29 115.074 222.02 115.074 222.02Z" fill="#32345B"/>
<path d="M103.972 216.182L122.145 181.62C122.145 181.62 121.247 181.044 120.683 181.042C120.171 181.041 119.64 181.513 119.64 181.513L102.831 213.481C102.831 213.481 102.706 214.39 102.946 214.942C103.167 215.452 103.972 216.182 103.972 216.182Z" fill="#32345B"/>
<path d="M128.706 171.745C128.389 171.579 128.096 171.425 127.834 171.286C128.108 171.43 128.399 171.584 128.706 171.745C133.405 174.206 143.549 179.232 140.535 172.949C147.003 176.885 140.421 177.971 140.314 177.915C140.214 177.863 133.017 174.02 128.706 171.745Z" fill="#32345B"/>
<path d="M118.227 188.95C122.392 191.909 121.884 193.894 120.443 195.824C119.016 197.736 117.201 198.884 113.043 196.056C108.786 193.161 106.401 189.138 107.82 187.116C109.254 185.076 113.961 185.919 118.227 188.95Z" fill="#EDB984"/>
<path d="M122.023 179.491C126.416 182.813 125.909 184.888 124.428 186.86C122.96 188.815 121.078 189.945 116.69 186.769C112.188 183.511 109.627 179.138 111.089 177.061C112.564 174.964 117.514 176.081 122.023 179.491Z" fill="#EDB984"/>
<path d="M128.285 173.323C132.468 176.604 131.873 178.759 130.321 180.84C128.784 182.901 126.877 184.126 122.697 180.993C118.414 177.783 116.094 173.365 117.627 171.18C119.175 168.974 123.997 169.959 128.285 173.323Z" fill="#EDB984"/>
<path d="M124.309 175.025C125.282 174.742 129.75 176.983 137.367 177.969C142.712 178.661 145.427 185.74 141.9 190.761C137.501 191.204 122.211 184.188 120.995 181.697C119.666 178.976 122.189 175.643 124.309 175.025Z" fill="#EDB984"/>
</svg>
