<svg width="463" height="381" viewBox="0 0 463 381" fill="none" xmlns="http://www.w3.org/2000/svg">
<g clip-path="url(#clip0_135_2678)">
<path d="M206.736 52.9023C193.369 41.3491 174.955 48.9229 162.916 55.7393C148.041 67.8573 142.333 77.4686 154.415 104.969L223.247 76.9869C223.247 76.9869 221.352 71.2944 206.736 52.9023Z" fill="#40447E"/>
<path d="M201.162 85.3108L154.418 104.969C154.418 104.969 144.503 88.3065 148.752 73.9163C153.002 59.5261 162.917 55.7393 162.917 55.7393C166.277 71.3511 181.629 83.5032 201.162 85.3108Z" fill="#32345B"/>
<path d="M186.058 68.7567C164.917 70.3457 154.418 104.969 154.418 104.969C154.418 104.969 159.672 128.797 177.267 145.349L182.654 143.353C182.654 143.353 207.198 67.1677 186.058 68.7567Z" fill="#351E1B"/>
<path d="M309.143 270.337C309.143 270.337 323.016 288.467 328.042 291.003C333.066 293.539 351.01 280.541 351.01 280.541L365.847 332.244C365.847 332.244 333.337 363.343 312.324 360.859C291.312 358.375 264.219 309.724 264.219 309.724L309.143 270.337Z" fill="#E79B69"/>
<path d="M108.588 287.488C108.588 287.488 94.4778 300.121 93.3205 306.623C92.1633 313.126 118.701 329.248 118.701 329.248L79.1499 357.933C79.1499 357.933 32.3518 335.183 29.7313 309.514C27.1093 283.845 64.5218 241.787 64.5218 241.787L108.588 287.488Z" fill="#E79B69"/>
<path d="M256.863 188.869L263.882 330.558C306.449 326.765 326.551 279.98 326.551 279.98C326.551 279.98 302.312 235.725 256.863 188.869Z" fill="#EDE4C9"/>
<path d="M257.066 192.885L263.887 330.558C273.603 329.693 282.136 326.573 289.538 322.295C292.254 306.63 292.375 287.375 289.262 266.978C284.065 232.923 271.277 204.921 257.066 192.885Z" fill="#E0D0A3"/>
<path d="M131.451 389.988H266.5C266.5 389.988 282.801 252.163 272.751 216.127C262.701 180.091 217.723 160.216 207.718 158.595C188.209 155.434 123.005 183.62 116.501 195C109.998 206.38 134.999 310.328 134.999 310.328L131.451 389.988Z" fill="#EDE4C9"/>
<path d="M174 164C186.692 157.802 211.078 158.743 211.078 158.743C211.078 158.743 227.875 164.462 237.283 170.861C245.561 176.49 256.406 188.28 256.406 188.28C256.406 188.28 243.187 196.469 233.742 198.884C221.856 201.921 213.375 203.121 201.162 202.671C189.982 202.259 184.418 200.165 173.541 197.369C163.93 194.898 140 179 140 179C140 179 162 169 174 164Z" fill="#E0D0A3"/>
<path d="M112 294C72.3962 303.576 31.25 279.925 31.25 279.925C31.25 279.925 65.8111 223.756 88.9183 207.062C129.135 178.009 140.5 183 140.5 183C139.446 210.234 133.296 259.77 112 294Z" fill="#EDE4C9"/>
<path d="M57.6535 276.469C67.4315 287.313 96.9173 273.876 123.515 246.456C129 240 129 240.5 135.5 228.5C129.725 253.559 131.153 265.42 112 294C72.3948 303.576 31.25 279.924 31.25 279.924C31.25 279.924 63.2543 227.923 86.2582 209.128C60.8902 236.054 48.1063 265.88 57.6535 276.469Z" fill="#E0D0A3"/>
<path d="M327.198 290.486C319.512 316.406 315.24 338.467 338.297 353.007C366.222 337.937 396.728 304.009 403.237 280.085L379.645 252.683L327.198 290.486Z" fill="#EDB984"/>
<path d="M379.645 252.683L363.562 264.274C368.575 263.584 369.766 267.024 372.767 269.877C382.572 279.199 378.285 302.685 359.389 325.416C350.672 335.901 341.035 343.82 332.209 348.44C333.987 350.034 336.001 351.561 338.297 353.009C366.222 337.938 396.728 304.011 403.236 280.087L379.645 252.683Z" fill="#E79B69"/>
<path d="M94.5488 303.488C67.3691 284.897 46.6896 299.654 43.834 328.207C64.2542 353.961 114.856 374.218 132.269 375.352L133.685 333.697L94.5488 303.488Z" fill="#EDB984"/>
<path d="M94.5483 303.489L98.8912 306.835C81.0831 305.265 67.2651 309.662 63.9605 319.515C58.9942 334.325 79.5929 355.776 109.971 367.424C113.753 368.875 128.581 373.582 132.268 374.595V375.352C114.857 374.218 60.2039 355.37 39.7852 329.617C42.6408 301.066 67.37 284.899 94.5483 303.489Z" fill="#E79B69"/>
<path d="M401.291 225.193C396.756 228.042 385.4 235.831 376.458 251.203C373.146 256.897 374.178 264.219 378.853 268.812L384.386 274.249C388.442 278.232 398.466 281.747 405.297 278.435C412.465 274.959 416.646 264.036 419.857 257.888C428.274 241.771 406.893 221.671 401.291 225.193Z" fill="#E79B69"/>
<path d="M176.387 168.394L177.569 116.237L212.747 115.92L222.206 163.337C219.25 188.625 186.733 193.051 176.387 168.394Z" fill="#D27558"/>
<path d="M168.699 173.136L175.793 161.755C175.793 161.755 199.572 182.721 208.605 180.407C214.486 178.899 222.498 159.227 222.498 159.227L232.253 168.078L231.9 194.453L211.833 191.507L196.88 204.971L168.699 173.136Z" fill="white"/>
<path d="M171.862 90.8355C172.497 143.845 189 164 189 164C189 164 211.965 171.121 229.5 165C247.036 158.879 253 143 253 143C253 143 240.778 122.502 239.584 108.143C238.39 93.7847 238.188 66.3419 224.958 61.6628C211.73 56.9837 171.455 56.7338 171.862 90.8355Z" fill="#5A3A35"/>
<path d="M235.245 80.8427C235.733 80.8427 236.214 80.873 236.699 80.8866C234.829 71.8117 231.482 63.9683 224.96 61.6613C211.732 56.9823 171.456 56.7323 171.864 90.834C172.091 109.69 175.243 126.842 179.206 141.138C182.577 107.172 206.373 80.8427 235.245 80.8427Z" fill="#351E1B"/>
<path d="M174.408 108.679C168.769 104.478 163.267 105.858 162.121 111.761C160.975 117.662 164.617 125.853 170.256 130.053C175.895 134.253 181.397 132.874 182.543 126.971C183.688 121.068 180.047 112.879 174.408 108.679Z" fill="#EDB984"/>
<path d="M233.719 27.0086C202.434 28.8854 163.353 68.9962 154.418 104.969C168.637 78.5316 218.036 58.7548 235.815 76.8925C235.815 76.8925 265.002 25.1318 233.719 27.0086Z" fill="#1D1E33"/>
<path d="M189.217 86.4532C189.217 86.4532 189.773 115.59 194.672 121.866C199.656 128.25 236.382 118.531 236.674 113.813C236.955 109.256 233.326 84.2735 232.353 80.1866C228.662 64.6771 189.492 72.8355 189.217 86.4532Z" fill="#EDB984"/>
<path d="M229.093 84.6295C230.475 84.6295 231.841 84.687 233.195 84.7734C232.845 82.6451 232.546 80.994 232.353 80.1852C228.662 64.6771 189.492 72.8341 189.217 86.4532C189.217 86.4532 189.33 92.3032 189.894 99.3211C199.357 90.334 213.402 84.6295 229.093 84.6295Z" fill="#E79B69"/>
<path d="M172.932 113.493C169.381 110.588 166.059 111.103 165.514 114.646C164.968 118.189 167.406 123.415 170.959 126.322C174.511 129.227 177.832 128.712 178.377 125.169C178.922 121.626 176.485 116.398 172.932 113.493Z" fill="#D27558"/>
<path d="M176.421 120.922C174.255 119.131 172.135 119.579 171.687 121.925C171.24 124.268 172.632 127.62 174.799 129.409C176.965 131.2 179.086 130.751 179.533 128.406C179.981 126.063 178.587 122.712 176.421 120.922Z" fill="#EDB984"/>
<path d="M235.419 30.3021C240.715 29.9859 244.236 31.2313 246.49 33.4734C244.729 29.2141 240.745 26.5598 233.239 27.0079C202.107 28.8648 163.309 69.3765 154.418 104.969C156.068 101.917 158.21 98.2029 160.704 95.3792C174.151 63.4379 207.793 31.9493 235.419 30.3021Z" fill="#32345B"/>
<path d="M209.956 107.372C209.449 103.275 207.225 100.08 204.99 100.238C202.755 100.394 201.352 103.841 201.86 107.939C202.367 112.035 204.591 115.229 206.826 115.073C209.062 114.917 210.463 111.47 209.956 107.372Z" fill="#5A4949"/>
<path d="M205.187 83.5963L191.79 89.6235C190.664 90.1294 190.134 91.5457 190.606 92.7863L192.386 97.4669C192.858 98.709 194.156 99.3043 195.282 98.7984L208.679 92.7727C209.805 92.2652 210.335 90.8489 209.863 89.6083L208.083 84.9278C207.611 83.6857 206.315 83.0904 205.187 83.5963Z" fill="#5A3A35"/>
<path d="M233.375 102.683C232.259 98.7209 229.587 95.9519 227.41 96.4972C225.233 97.041 224.372 100.695 225.49 104.657C226.606 108.62 229.277 111.39 231.456 110.847C233.633 110.3 234.493 106.646 233.375 102.683Z" fill="#5A4949"/>
<path d="M235.92 81.4468L223.669 80.4698C222.638 80.388 221.781 81.2847 221.752 82.4738L221.649 86.9605C221.622 88.1511 222.434 89.1827 223.465 89.2644L235.716 90.2415C236.746 90.3233 237.603 89.4265 237.631 88.2374L237.736 83.7507C237.763 82.5601 236.95 81.5286 235.92 81.4468Z" fill="#5A3A35"/>
<path d="M208.178 130.458C207.036 129.912 205.736 130.505 205.562 131.759V131.759C205.455 132.529 205.844 133.28 206.571 133.554C209.349 134.599 216.71 136.563 226.204 132.793C226.691 132.6 226.9 132.026 226.662 131.56V131.56C226.445 131.135 225.933 130.954 225.488 131.126C217.864 134.081 211.424 132.01 208.178 130.458Z" fill="#221311"/>
<path d="M375.034 238.314C369.402 241.247 360.499 259.297 365.685 270.194C370.668 280.664 390.469 278.305 385.753 267.354C380.839 255.943 380.757 235.335 375.034 238.314Z" fill="#EDB984"/>
<path d="M390.114 282.638L365.695 227.963C364.684 225.698 365.58 222.985 367.698 221.904L392.623 209.173C394.74 208.092 397.277 209.051 398.289 211.315L422.708 265.99C423.719 268.255 422.822 270.968 420.705 272.049L395.78 284.779C393.662 285.861 391.126 284.902 390.114 282.638Z" fill="#EC910F"/>
<path d="M377.837 221.761L386.785 217.191M398.289 211.315L422.708 265.99C423.719 268.255 422.822 270.968 420.705 272.049L395.78 284.779C393.662 285.861 391.126 284.902 390.114 282.638L365.695 227.963C364.684 225.698 365.58 222.985 367.698 221.904L392.623 209.173C394.74 208.092 397.277 209.051 398.289 211.315Z" stroke="black" stroke-width="2" stroke-linecap="round"/>
<path d="M219.484 122.2C222.823 122.982 226.694 121.301 227.152 117.508C227.522 114.443 224.342 110.27 224.342 110.27L219.484 104.211C219.484 104.211 211.905 114.328 215.302 119.072C216.531 120.789 217.562 121.751 219.484 122.2Z" fill="#E79B69"/>
<path d="M412.396 248.037C406.497 252.52 407.216 255.526 409.257 258.45C411.279 261.346 413.85 263.085 419.739 258.801C425.769 254.416 429.148 248.322 427.138 245.259C425.106 242.169 418.439 243.446 412.396 248.037Z" fill="#EDB984"/>
<path d="M407.018 236.739C400.795 241.771 401.513 244.914 403.611 247.901C405.69 250.863 408.356 252.574 414.572 247.763C420.949 242.828 424.576 236.204 422.506 233.058C420.416 229.882 413.405 231.574 407.018 236.739Z" fill="#EDB984"/>
<path d="M399.567 227.396C393.642 232.366 394.485 235.63 396.683 238.782C398.86 241.904 401.562 243.76 407.483 239.014C413.549 234.152 416.836 227.459 414.664 224.15C412.471 220.808 405.641 222.3 399.567 227.396Z" fill="#EDB984"/>
<path d="M375.879 228.373C374.733 229.298 373.496 236.754 368.167 246.897C364.429 254.014 370.17 263.719 378.858 263.981C383.086 259.04 388.061 234.12 386.262 230.389C384.297 226.311 378.375 226.358 375.879 228.373Z" fill="#EDB984"/>
</g>
<defs>
<clipPath id="clip0_135_2678">
<rect width="463" height="381" fill="white"/>
</clipPath>
</defs>
</svg>
