<svg width="60" height="60" viewBox="0 0 60 60" fill="none" xmlns="http://www.w3.org/2000/svg">
<path d="M44.6426 13.4133C37.2661 11.8726 37.2223 17.168 30.0096 17.168C23.7694 17.168 23.5354 11.9326 15.3764 13.4133C2.01647 15.8287 -0.0374808 45.2226 7.05002 46.7631C10.9849 47.618 12.9674 43.0548 18.1699 39.7795C18.9422 40.3504 19.8395 40.729 20.7873 40.8839C21.7351 41.0388 22.7062 40.9656 23.62 40.6702C24.5338 40.3749 25.3641 39.866 26.042 39.1857C26.7199 38.5054 27.2259 37.6733 27.518 36.7584C28.3457 36.6867 29.1762 36.6511 30.0071 36.6518C30.882 36.6518 31.6992 36.6893 32.4828 36.757C32.7756 37.6721 33.2825 38.5041 33.9612 39.1841C34.6399 39.8641 35.4709 40.3725 36.3854 40.6671C37.2999 40.9618 38.2714 41.0341 39.2194 40.8782C40.1675 40.7223 41.0647 40.3427 41.8367 39.7707C47.0456 43.0461 49.0281 47.6141 52.9642 46.7582C60.0505 45.2225 57.9441 16.1904 44.6426 13.4133ZM17.2817 28.4417H14.2179V25.3266H11.1012V22.2629H14.2177V19.1466H17.2814V22.2616H20.3965V25.3254H17.2814V28.4405L17.2817 28.4417ZM21.7609 38.9435C20.9651 38.9435 20.1872 38.7075 19.5255 38.2653C18.8638 37.8232 18.3481 37.1947 18.0435 36.4595C17.739 35.7243 17.6593 34.9152 17.8146 34.1347C17.9699 33.3542 18.3531 32.6372 18.9159 32.0745C19.4786 31.5118 20.1956 31.1286 20.9761 30.9733C21.7566 30.8181 22.5656 30.8978 23.3009 31.2023C24.0361 31.5069 24.6645 32.0226 25.1067 32.6843C25.5488 33.346 25.7848 34.1239 25.7848 34.9198C25.7851 35.9869 25.3615 37.0105 24.6071 37.7653C23.8528 38.5201 22.8295 38.9443 21.7623 38.9447L21.7609 38.9435ZM38.2377 38.9435C37.442 38.9428 36.6643 38.7062 36.0031 38.2635C35.3418 37.8209 34.8267 37.1921 34.5227 36.4568C34.2188 35.7214 34.1397 34.9124 34.2955 34.1321C34.4512 33.3517 34.8349 32.6351 35.3979 32.0728C35.9609 31.5105 36.678 31.1277 37.4585 30.9729C38.239 30.8181 39.0479 30.8982 39.7829 31.203C40.5179 31.5079 41.146 32.0238 41.5879 32.6856C42.0297 33.3474 42.2654 34.1253 42.2651 34.921C42.2651 35.4498 42.1609 35.9733 41.9584 36.4617C41.756 36.9501 41.4592 37.3938 41.0852 37.7675C40.7112 38.1412 40.2672 38.4375 39.7785 38.6395C39.2899 38.8415 38.7663 38.9452 38.2376 38.9447L38.2377 38.9435ZM41.0133 25.8234C40.6118 25.8235 40.2192 25.7045 39.8853 25.4815C39.5514 25.2584 39.2912 24.9414 39.1375 24.5704C38.9838 24.1995 38.9436 23.7913 39.0219 23.3974C39.1002 23.0036 39.2936 22.6419 39.5775 22.3579C39.8614 22.074 40.2232 21.8807 40.617 21.8023C41.0108 21.724 41.419 21.7643 41.79 21.9179C42.1609 22.0716 42.478 22.3319 42.701 22.6658C42.924 22.9997 43.0431 23.3922 43.043 23.7937C43.043 24.0603 42.9905 24.3243 42.8885 24.5706C42.7864 24.8169 42.6369 25.0407 42.4484 25.2292C42.2599 25.4177 42.0361 25.5672 41.7898 25.6693C41.5435 25.7713 41.2795 25.8238 41.0129 25.8238L41.0133 25.8234ZM45.4099 30.2203C45.0084 30.2203 44.6159 30.1013 44.2821 29.8782C43.9482 29.6552 43.688 29.3382 43.5344 28.9672C43.3807 28.5963 43.3405 28.1881 43.4188 27.7943C43.4971 27.4005 43.6904 27.0388 43.9743 26.7549C44.2582 26.471 44.6199 26.2776 45.0137 26.1993C45.4074 26.1209 45.8156 26.1611 46.1866 26.3147C46.5575 26.4683 46.8746 26.7285 47.0977 27.0623C47.3208 27.3962 47.4398 27.7886 47.4399 28.1901C47.44 28.4573 47.3875 28.7218 47.2852 28.9685C47.183 29.2153 47.033 29.4395 46.844 29.6282C46.6549 29.8169 46.4305 29.9664 46.1836 30.0682C45.9366 30.17 45.672 30.2221 45.4049 30.2215L45.4099 30.2203ZM45.4099 21.4256C45.0084 21.4256 44.6159 21.3066 44.2821 21.0835C43.9482 20.8605 43.688 20.5435 43.5343 20.1725C43.3807 19.8016 43.3405 19.3934 43.4188 18.9996C43.4971 18.6058 43.6904 18.2441 43.9743 17.9602C44.2582 17.6762 44.6199 17.4829 45.0137 17.4046C45.4075 17.3262 45.8157 17.3664 46.1867 17.5201C46.5576 17.6737 46.8747 17.9339 47.0977 18.2677C47.3208 18.6016 47.4399 18.9941 47.4399 19.3956C47.44 19.6627 47.3875 19.9272 47.2852 20.1739C47.1829 20.4207 47.033 20.6448 46.844 20.8335C46.6549 21.0222 46.4305 21.1718 46.1835 21.2736C45.9366 21.3754 45.672 21.4274 45.4049 21.4268L45.4099 21.4256ZM49.8066 25.8223C49.4051 25.8223 49.0126 25.7032 48.6787 25.4801C48.3449 25.2571 48.0847 24.94 47.9311 24.5691C47.7774 24.1981 47.7372 23.79 47.8155 23.3962C47.8939 23.0024 48.0872 22.6407 48.3711 22.3568C48.655 22.0729 49.0168 21.8795 49.4105 21.8012C49.8043 21.7229 50.2125 21.7631 50.5834 21.9167C50.9544 22.0704 51.2714 22.3306 51.4945 22.6644C51.7176 22.9982 51.8366 23.3907 51.8366 23.7922C51.8368 24.0593 51.7842 24.3239 51.682 24.5707C51.5797 24.8174 51.4297 25.0416 51.2407 25.2303C51.0516 25.419 50.8271 25.5686 50.5802 25.6704C50.3332 25.7722 50.0686 25.8242 49.8014 25.8235L49.8066 25.8223Z" fill="#EC910F"/>
</svg>
