<svg width="60" height="60" viewBox="0 0 60 60" fill="none" xmlns="http://www.w3.org/2000/svg">
<path d="M37.1996 8.40002H22.7996C18.8232 8.40002 15.5996 11.6236 15.5996 15.6V44.4C15.5996 48.3765 18.8232 51.6 22.7996 51.6H37.1996C41.1761 51.6 44.3996 48.3765 44.3996 44.4V15.6C44.3996 11.6236 41.1761 8.40002 37.1996 8.40002Z" stroke="#EC910F" stroke-width="3.6" stroke-linecap="round" stroke-linejoin="round"/>
<path d="M30.0008 45.6C29.6804 45.6 29.3789 45.4752 29.1524 45.2487C28.9256 45.0219 28.8008 44.7207 28.8008 44.4C28.8008 44.1619 28.8706 43.9313 29.0031 43.7333C29.1353 43.5353 29.3216 43.3824 29.5414 43.2915C29.6878 43.2307 29.8424 43.2 30.0008 43.2C30.0793 43.2 30.158 43.2077 30.2348 43.2231C30.4685 43.2696 30.6809 43.3831 30.8494 43.5514C31.0177 43.7199 31.1312 43.9323 31.1777 44.166C31.2243 44.3995 31.2005 44.6393 31.1093 44.8591C31.0184 45.0792 30.8655 45.2655 30.6675 45.3977C30.4695 45.5302 30.2389 45.6 30.0008 45.6Z" fill="#EC910F"/>
<path d="M29.9996 46.8C29.3631 46.8 28.7526 46.547 28.3026 46.097C27.8526 45.647 27.5996 45.0365 27.5996 44.4C27.5996 43.9253 27.7402 43.4614 28.004 43.0666C28.2678 42.672 28.6426 42.3643 29.0811 42.1826C29.5196 42.001 30.0022 41.9534 30.4678 42.0461C30.9334 42.1387 31.3611 42.3672 31.6966 42.703C32.0324 43.0385 32.2609 43.4662 32.3535 43.9318C32.4462 44.3974 32.3986 44.88 32.217 45.3185C32.0353 45.757 31.7276 46.1318 31.3331 46.3956C30.9382 46.6594 30.4743 46.8 29.9996 46.8Z" fill="#EC910F"/>
</svg>
