<svg width="60" height="60" viewBox="0 0 60 60" fill="none" xmlns="http://www.w3.org/2000/svg">
<path fill-rule="evenodd" clip-rule="evenodd" d="M20.6608 55.0829H39.3699C40.3379 55.0829 41.1239 54.297 41.1239 53.3289C41.1239 52.3608 40.3379 51.575 39.3699 51.575H20.6608C19.6928 51.575 18.9068 52.3608 18.9068 53.3289C18.9068 54.297 19.6928 55.0829 20.6608 55.0829ZM6.62898 36.3738H48.7244C49.6925 36.3738 50.4784 35.5879 50.4784 34.6198C50.4784 33.6518 49.6925 32.8658 48.7244 32.8658H6.62898C5.66095 32.8658 4.875 33.6518 4.875 34.6198C4.875 35.5879 5.66095 36.3738 6.62898 36.3738Z" fill="#F95157"/>
<path fill-rule="evenodd" clip-rule="evenodd" d="M55.1557 18.2493C55.1556 12.1143 50.1822 7.14087 44.0471 7.14087C35.8956 7.14087 24.1352 7.14087 15.9835 7.14087C9.84849 7.14087 4.87506 12.1143 4.875 18.2493C4.875 23.9633 4.875 31.2446 4.875 36.9585C4.87506 43.0936 9.84849 48.067 15.9835 48.067C24.1352 48.067 35.8956 48.067 44.0471 48.067C50.1822 48.067 55.1556 43.0936 55.1557 36.9585V18.2493ZM51.6477 18.2493V36.9585C51.6477 41.1562 48.2448 44.559 44.0471 44.559C35.8956 44.559 24.1352 44.559 15.9835 44.559C11.7859 44.559 8.38306 41.1562 8.38295 36.9586C8.38295 36.9584 8.38295 18.2494 8.38295 18.2494C8.38306 14.0516 11.7859 10.6488 15.9835 10.6488C24.1352 10.6488 35.8956 10.6488 44.0471 10.6488C48.2448 10.6488 51.6477 14.0516 51.6477 18.2493ZM30.0153 38.5078C31.0399 38.5078 31.8716 39.3395 31.8716 40.3641C31.8716 41.3886 31.0399 42.2204 30.0153 42.2204C28.9908 42.2204 28.159 41.3886 28.159 40.3641C28.159 39.3395 28.9908 38.5078 30.0153 38.5078Z" fill="#EC910F"/>
</svg>
