<svg width="60" height="60" viewBox="0 0 60 60" fill="none" xmlns="http://www.w3.org/2000/svg">
<g clip-path="url(#clip0_135_2594)">
<mask id="mask0_135_2594" style="mask-type:luminance" maskUnits="userSpaceOnUse" x="0" y="0" width="60" height="60">
<path d="M60 0H0V60H60V0Z" fill="white"/>
</mask>
<g mask="url(#mask0_135_2594)">
<path d="M40.3242 49.7H19.6992C17.2148 49.6934 14.8341 48.7036 13.0774 46.9468C11.3207 45.1901 10.3308 42.8094 10.3242 40.325V19.7C10.3242 17.2136 11.3119 14.829 13.0701 13.0709C14.8282 11.3127 17.2128 10.325 19.6992 10.325H40.3242C42.8086 10.3316 45.1893 11.3214 46.9461 13.0782C48.7028 14.8349 49.6926 17.2156 49.6992 19.7V40.325C49.6926 42.8094 48.7028 45.1901 46.9461 46.9468C45.1893 48.7036 42.8086 49.6934 40.3242 49.7ZM19.6992 14.075C18.9596 14.0717 18.2267 14.2149 17.5427 14.4964C16.8588 14.778 16.2374 15.1922 15.7144 15.7152C15.1914 16.2381 14.7772 16.8596 14.4957 17.5435C14.2141 18.2275 14.0709 18.9604 14.0742 19.7V40.325C14.0742 41.0637 14.2197 41.7951 14.5024 42.4776C14.7851 43.1601 15.1994 43.7802 15.7217 44.3025C16.2441 44.8248 16.8642 45.2392 17.5466 45.5218C18.2291 45.8045 18.9605 45.95 19.6992 45.95H40.3242C41.0629 45.95 41.7944 45.8045 42.4768 45.5218C43.1593 45.2392 43.7794 44.8248 44.3017 44.3025C44.824 43.7802 45.2384 43.1601 45.521 42.4776C45.8037 41.7951 45.9492 41.0637 45.9492 40.325V19.7C45.9492 18.9613 45.8037 18.2299 45.521 17.5474C45.2384 16.865 44.824 16.2449 44.3017 15.7225C43.7794 15.2002 43.1593 14.7859 42.4768 14.5032C41.7944 14.2205 41.0629 14.075 40.3242 14.075H19.6992Z" fill="#EC910F"/>
<path d="M24.2248 13.925C23.9776 13.9284 23.7323 13.8822 23.5033 13.7891C23.2743 13.6961 23.0662 13.5581 22.8915 13.3833C22.7167 13.2085 22.5787 13.0005 22.4857 12.7715C22.3926 12.5425 22.3464 12.2972 22.3498 12.05V5C22.3498 4.50272 22.5473 4.02581 22.899 3.67417C23.2506 3.32254 23.7275 3.125 24.2248 3.125C24.7221 3.125 25.199 3.32254 25.5506 3.67417C25.9022 4.02581 26.0998 4.50272 26.0998 5V12.05C26.0998 12.5473 25.9022 13.0242 25.5506 13.3758C25.199 13.7275 24.7221 13.925 24.2248 13.925Z" fill="#EC910F"/>
<path d="M35.7754 14C35.2801 13.9935 34.807 13.7939 34.4567 13.4437C34.1065 13.0934 33.9069 12.6203 33.9004 12.125V5C33.9004 4.50272 34.0979 4.02581 34.4496 3.67417C34.8012 3.32254 35.2781 3.125 35.7754 3.125C36.2727 3.125 36.7496 3.32254 37.1012 3.67417C37.4528 4.02581 37.6504 4.50272 37.6504 5V12.125C37.6504 12.6223 37.4528 13.0992 37.1012 13.4508C36.7496 13.8025 36.2727 14 35.7754 14Z" fill="#EC910F"/>
<path d="M24.2246 56.875C23.7273 56.875 23.2504 56.6775 22.8988 56.3258C22.5472 55.9742 22.3496 55.4973 22.3496 55V47.825C22.3496 47.3277 22.5472 46.8508 22.8988 46.4992C23.2504 46.1476 23.7273 45.95 24.2246 45.95C24.7219 45.95 25.1988 46.1476 25.5504 46.4992C25.9021 46.8508 26.0996 47.3277 26.0996 47.825V55C26.0931 55.4953 25.8935 55.9684 25.5433 56.3187C25.193 56.6689 24.7199 56.8685 24.2246 56.875Z" fill="#EC910F"/>
<path d="M35.7754 56.95C35.2801 56.9435 34.807 56.7439 34.4567 56.3937C34.1065 56.0434 33.9069 55.5703 33.9004 55.075V47.825C33.9004 47.3277 34.0979 46.8508 34.4496 46.4992C34.8012 46.1476 35.2781 45.95 35.7754 45.95C36.2727 45.95 36.7496 46.1476 37.1012 46.4992C37.4528 46.8508 37.6504 47.3277 37.6504 47.825V55C37.6605 55.2525 37.6195 55.5044 37.5298 55.7406C37.4401 55.9768 37.3036 56.1925 37.1285 56.3746C36.9533 56.5567 36.7432 56.7016 36.5107 56.8005C36.2782 56.8993 36.0281 56.9502 35.7754 56.95Z" fill="#EC910F"/>
<path d="M55 26.2H47.875C47.3777 26.2 46.9008 26.0025 46.5492 25.6508C46.1975 25.2992 46 24.8223 46 24.325C46 23.8277 46.1975 23.3508 46.5492 22.9992C46.9008 22.6476 47.3777 22.45 47.875 22.45H55C55.4973 22.45 55.9742 22.6476 56.3258 22.9992C56.6775 23.3508 56.875 23.8277 56.875 24.325C56.875 24.8223 56.6775 25.2992 56.3258 25.6508C55.9742 26.0025 55.4973 26.2 55 26.2Z" fill="#EC910F"/>
<path d="M55 37.75H47.75C47.2527 37.75 46.7758 37.5525 46.4242 37.2008C46.0725 36.8492 45.875 36.3723 45.875 35.875C45.875 35.3777 46.0725 34.9008 46.4242 34.5492C46.7758 34.1975 47.2527 34 47.75 34H55C55.4973 34 55.9742 34.1975 56.3258 34.5492C56.6775 34.9008 56.875 35.3777 56.875 35.875C56.875 36.3723 56.6775 36.8492 56.3258 37.2008C55.9742 37.5525 55.4973 37.75 55 37.75Z" fill="#EC910F"/>
<path d="M12.2495 26.2H4.99952C4.56107 26.1277 4.16255 25.902 3.87504 25.5631C3.58752 25.2243 3.42969 24.7944 3.42969 24.35C3.42969 23.9056 3.58752 23.4757 3.87504 23.1369C4.16255 22.798 4.56107 22.5723 4.99952 22.5H12.2495C12.7468 22.5 13.2237 22.6975 13.5753 23.0492C13.927 23.4008 14.1245 23.8777 14.1245 24.375C14.1245 24.8723 13.927 25.3492 13.5753 25.7008C13.2237 26.0525 12.7468 26.25 12.2495 26.25V26.2Z" fill="#EC910F"/>
<path d="M12.25 37.75H5C4.50272 37.75 4.02581 37.5525 3.67417 37.2008C3.32254 36.8492 3.125 36.3723 3.125 35.875C3.125 35.3777 3.32254 34.9008 3.67417 34.5492C4.02581 34.1975 4.50272 34 5 34H12.25C12.7473 34 13.2242 34.1975 13.5758 34.5492C13.9275 34.9008 14.125 35.3777 14.125 35.875C14.125 36.3723 13.9275 36.8492 13.5758 37.2008C13.2242 37.5525 12.7473 37.75 12.25 37.75Z" fill="#EC910F"/>
</g>
</g>
<defs>
<clipPath id="clip0_135_2594">
<rect width="60" height="60" fill="white"/>
</clipPath>
</defs>
</svg>
