<svg width="150" height="63" viewBox="0 0 150 63" fill="none" xmlns="http://www.w3.org/2000/svg">
<path d="M1.392 32.64L11.28 3.168C11.728 1.888 12.24 1.056 12.816 0.672003C13.392 0.224001 14.352 0 15.696 0H16.752C18.096 0 18.928 0.224001 19.248 0.672003C19.568 1.12 19.504 1.952 19.056 3.168L8.4 35.424C7.632 37.664 7.6 39.296 8.304 40.32C9.072 41.28 10.672 41.76 13.104 41.76H31.152V18.624C31.152 17.344 31.376 16.48 31.824 16.032C32.272 15.584 33.136 15.36 34.416 15.36H35.28C36.56 15.36 37.424 15.584 37.872 16.032C38.32 16.48 38.544 17.344 38.544 18.624V59.136C38.544 60.416 38.32 61.28 37.872 61.728C37.424 62.176 36.56 62.4 35.28 62.4H34.416C33.136 62.4 32.272 62.176 31.824 61.728C31.376 61.28 31.152 60.416 31.152 59.136V48.768H13.2C7.248 48.768 3.312 47.488 1.392 44.928C-0.464 42.304 -0.464 38.208 1.392 32.64Z" fill="#EC910F"/>
<path d="M47.543 36.8153C45.2159 36.3393 43.5449 34.2919 43.5449 31.9167V30.4833C43.5449 28.1081 45.2159 26.0607 47.543 25.5847L49.1949 25.2469C50.8186 24.9148 52.0937 23.6789 52.725 22.1465C53.3571 20.6122 53.3173 18.8582 52.4027 17.4735L51.4814 16.0786C50.1722 14.0966 50.4383 11.4671 52.1179 9.78743L53.132 8.77328C54.8116 7.09357 57.4413 6.82752 59.4233 8.13675L60.8182 9.05813C62.203 9.97283 63.9564 10.014 65.4909 9.38181C67.0242 8.75006 68.2607 7.47347 68.593 5.84877L68.9306 4.19812C69.4065 1.87106 71.454 0.200012 73.8292 0.200012H75.2622C77.6375 0.200012 79.6849 1.87106 80.1608 4.19812L80.4987 5.85016C80.8308 7.47385 82.0667 8.74901 83.599 9.38031C85.1333 10.0124 86.8872 9.97272 88.2719 9.05829L89.6678 8.13642C91.6501 6.82739 94.2797 7.09374 95.9592 8.77366L96.9727 9.78743C98.6519 11.4671 98.9178 14.0963 97.6088 16.0782L96.6868 17.4741C95.7722 18.8587 95.7312 20.6124 96.3634 22.1466C96.9951 23.6794 98.2712 24.9147 99.8954 25.2469L101.547 25.5847C103.874 26.0607 105.545 28.1081 105.545 30.4833V31.9167C105.545 34.2919 103.874 36.3393 101.547 36.8153L99.8949 37.1532C98.2712 37.4853 96.9961 38.7212 96.3649 40.2535C95.7328 41.7878 95.7726 43.5418 96.6871 44.9265L97.6088 46.3219C98.9178 48.3037 98.6519 50.9329 96.9727 52.6126L95.9592 53.6264C94.2797 55.3063 91.6501 55.5726 89.6678 54.2636L88.2713 53.3414C86.8867 52.427 85.1331 52.3861 83.5989 53.0183C82.0662 53.65 80.8308 54.9261 80.4986 56.5503L80.1608 58.2019C79.6849 60.529 77.6375 62.2 75.2622 62.2H73.8292C71.4539 62.2 69.4065 60.529 68.9306 58.2019L68.5929 56.551C68.2607 54.9266 67.0248 53.651 65.4917 53.0195C63.9572 52.3874 62.2027 52.4274 60.8179 53.3421L59.4233 54.2633C57.4413 55.5725 54.8116 55.3065 53.132 53.6267L52.1179 52.6126C50.4383 50.933 50.1722 48.3035 51.4814 46.3214L52.4038 44.9249C53.3179 43.5409 53.3586 41.7879 52.7263 40.2546C52.0941 38.7215 50.8179 37.4851 49.1932 37.1528L47.543 36.8153ZM74.5457 48.792C84.261 48.792 92.1372 40.9155 92.1372 31.2C92.1372 21.4845 84.261 13.608 74.5457 13.608C64.8305 13.608 56.9542 21.4845 56.9542 31.2C56.9542 40.9155 64.8305 48.792 74.5457 48.792Z" fill="#465D7A"/>
<path d="M111.937 32.64L121.825 3.168C122.273 1.888 122.785 1.056 123.361 0.672003C123.937 0.224001 124.897 0 126.241 0H127.297C128.641 0 129.473 0.224001 129.793 0.672003C130.113 1.12 130.049 1.952 129.601 3.168L118.945 35.424C118.177 37.664 118.145 39.296 118.849 40.32C119.617 41.28 121.217 41.76 123.649 41.76H141.697V18.624C141.697 17.344 141.921 16.48 142.369 16.032C142.817 15.584 143.681 15.36 144.961 15.36H145.825C147.105 15.36 147.969 15.584 148.417 16.032C148.865 16.48 149.089 17.344 149.089 18.624V59.136C149.089 60.416 148.865 61.28 148.417 61.728C147.969 62.176 147.105 62.4 145.825 62.4H144.961C143.681 62.4 142.817 62.176 142.369 61.728C141.921 61.28 141.697 60.416 141.697 59.136V48.768H123.745C117.793 48.768 113.857 47.488 111.937 44.928C110.081 42.304 110.081 38.208 111.937 32.64Z" fill="#EC910F"/>
</svg>
