<svg width="24" height="24" viewBox="0 0 24 24" fill="none" xmlns="http://www.w3.org/2000/svg">
<path fill-rule="evenodd" clip-rule="evenodd" d="M15.5002 12C15.5002 12.256 15.4023 12.512 15.2073 12.707L11.2072 16.707C10.8162 17.098 10.1842 17.098 9.79325 16.707C9.40225 16.316 9.40225 15.684 9.79325 15.293L13.0982 11.988L9.91825 8.69499C9.53525 8.29599 9.54625 7.66499 9.94325 7.28099C10.3403 6.89699 10.9742 6.90799 11.3572 7.30499L15.2193 11.305C15.4073 11.5 15.5002 11.75 15.5002 12Z" fill="#ADADBF"/>
<mask id="mask0_194_2056" style="mask-type:luminance" maskUnits="userSpaceOnUse" x="9" y="7" width="7" height="11">
<path fill-rule="evenodd" clip-rule="evenodd" d="M15.5002 12C15.5002 12.256 15.4023 12.512 15.2073 12.707L11.2072 16.707C10.8162 17.098 10.1842 17.098 9.79325 16.707C9.40225 16.316 9.40225 15.684 9.79325 15.293L13.0982 11.988L9.91825 8.69499C9.53525 8.29599 9.54625 7.66499 9.94325 7.28099C10.3403 6.89699 10.9742 6.90799 11.3572 7.30499L15.2193 11.305C15.4073 11.5 15.5002 11.75 15.5002 12Z" fill="white"/>
</mask>
<g mask="url(#mask0_194_2056)">
<rect y="24" width="24" height="24" transform="rotate(-90 0 24)" fill="#ADADBF"/>
<rect y="24" width="24" height="24" transform="rotate(-90 0 24)" fill="#ADADBF"/>
<rect y="24" width="24" height="24" transform="rotate(-90 0 24)" fill="#ADADBF"/>
</g>
</svg>
