<svg width="40" height="40" viewBox="0 0 40 40" fill="none" xmlns="http://www.w3.org/2000/svg">
<g clip-path="url(#clip0_135_2544)">
<path d="M20 0C16.0444 0 12.1776 1.17298 8.8886 3.37061C5.59962 5.56824 3.03617 8.69181 1.52242 12.3463C0.00866572 16.0009 -0.387401 20.0222 0.384303 23.9018C1.15601 27.7814 3.06082 31.3451 5.85787 34.1421C8.65492 36.9392 12.2186 38.844 16.0982 39.6157C19.9778 40.3874 23.9992 39.9913 27.6537 38.4776C31.3082 36.9638 34.4318 34.4004 36.6294 31.1114C38.827 27.8224 40 23.9556 40 20C39.9943 14.6974 37.8853 9.61368 34.1358 5.8642C30.3863 2.11471 25.3026 0.00573514 20 0ZM20 36.6667C16.7037 36.6667 13.4813 35.6892 10.7405 33.8578C7.99969 32.0265 5.86348 29.4235 4.60202 26.3781C3.34056 23.3326 3.0105 19.9815 3.65359 16.7485C4.29667 13.5155 5.88402 10.5458 8.2149 8.21489C10.5458 5.88401 13.5155 4.29667 16.7485 3.65358C19.9815 3.01049 23.3326 3.34055 26.3781 4.60201C29.4235 5.86347 32.0265 7.99968 33.8578 10.7405C35.6892 13.4813 36.6667 16.7036 36.6667 20C36.6618 24.4188 34.9043 28.6552 31.7798 31.7798C28.6552 34.9043 24.4188 36.6618 20 36.6667Z" fill="#EC910F"/>
<path d="M20.0001 10C19.558 10 19.1341 10.1756 18.8216 10.4882C18.509 10.8007 18.3334 11.2246 18.3334 11.6667V18.875L12.7151 22.395C12.3394 22.6297 12.0723 23.0041 11.9725 23.4357C11.8728 23.8674 11.9487 24.3209 12.1834 24.6967C12.4181 25.0724 12.7925 25.3395 13.2241 25.4392C13.6558 25.5389 14.1093 25.4631 14.4851 25.2283L20.8851 21.2283C21.1269 21.0768 21.3257 20.8658 21.4626 20.6154C21.5995 20.365 21.6698 20.0837 21.6667 19.7983V11.6667C21.6667 11.2246 21.4911 10.8007 21.1786 10.4882C20.866 10.1756 20.4421 10 20.0001 10Z" fill="#EC910F"/>
</g>
<defs>
<clipPath id="clip0_135_2544">
<rect width="40" height="40" fill="white"/>
</clipPath>
</defs>
</svg>
