<svg width="40" height="40" viewBox="0 0 40 40" fill="none" xmlns="http://www.w3.org/2000/svg">
<g clip-path="url(#clip0_135_2551)">
<path d="M34.1419 5.85812C26.331 -1.95273 13.6673 -1.95273 5.85804 5.85828C-1.95273 13.6691 -1.95273 26.3327 5.85836 34.1419C13.6673 41.9527 26.331 41.9527 34.1419 34.1418C41.9527 26.3327 41.9527 13.6691 34.1419 5.85812ZM31.785 31.7847C25.2758 38.2939 14.7228 38.2939 8.21539 31.785C1.70617 25.2773 1.70617 14.7243 8.21523 8.21523C14.7228 1.70609 25.2758 1.70609 31.7848 8.21523C38.2939 14.7244 38.2939 25.2773 31.785 31.7847Z" fill="#EC910F"/>
<path d="M28.8214 12.1551L18.3333 22.6433L12.8452 17.1551C12.1943 16.5043 11.139 16.5043 10.4881 17.1551C9.83729 17.806 9.83729 18.8613 10.4881 19.5122L17.1548 26.1788C17.8056 26.8297 18.861 26.8297 19.5118 26.1788L31.1784 14.5122C31.8293 13.8613 31.8293 12.806 31.1784 12.1551C30.5276 11.5043 29.4723 11.5043 28.8214 12.1551Z" fill="#EC910F"/>
</g>
<defs>
<clipPath id="clip0_135_2551">
<rect width="40" height="40" fill="white"/>
</clipPath>
</defs>
</svg>
