<svg width="600" height="600" viewBox="0 0 600 600" fill="none" xmlns="http://www.w3.org/2000/svg">
<rect width="600" height="600" rx="20" fill="white"/>
<rect x="22.5" y="22.5" width="270" height="270" rx="15" fill="#EC910F"/>
<path d="M190.399 59.8H125.599C107.705 59.8 93.1992 74.306 93.1992 92.2001V221.8C93.1992 239.694 107.705 254.2 125.599 254.2H190.399C208.293 254.2 222.799 239.694 222.799 221.8V92.2001C222.799 74.306 208.293 59.8 190.399 59.8Z" stroke="#011226" stroke-width="16" stroke-linecap="round" stroke-linejoin="round"/>
<path d="M158 227.2C156.558 227.2 155.201 226.638 154.182 225.619C153.161 224.598 152.6 223.243 152.6 221.8C152.6 220.729 152.914 219.691 153.51 218.8C154.105 217.909 154.943 217.221 155.932 216.811C156.591 216.538 157.287 216.4 158 216.4C158.353 216.4 158.707 216.435 159.053 216.504C160.105 216.713 161.06 217.224 161.818 217.981C162.576 218.739 163.086 219.695 163.296 220.747C163.505 221.798 163.399 222.877 162.988 223.866C162.579 224.856 161.891 225.695 161 226.29C160.109 226.886 159.071 227.2 158 227.2Z" fill="#011226"/>
<path d="M157.999 232.6C155.135 232.6 152.388 231.462 150.363 229.437C148.338 227.412 147.199 224.664 147.199 221.8C147.199 219.664 147.832 217.576 149.019 215.8C150.206 214.024 151.893 212.639 153.866 211.822C155.839 211.004 158.011 210.791 160.106 211.207C162.201 211.624 164.126 212.652 165.636 214.163C167.147 215.673 168.175 217.598 168.592 219.693C169.009 221.788 168.795 223.96 167.977 225.933C167.16 227.906 165.775 229.593 164 230.78C162.223 231.967 160.135 232.6 157.999 232.6Z" fill="#011226"/>
<rect x="308" y="22" width="270" height="270" rx="15" fill="#011226"/>
<path d="M534.12 81.433C533.659 81.3498 533.2 81.314 532.753 81.314C530.676 81.314 528.727 82.124 527.261 83.5814L527.258 83.5847L510.739 100.111L500.685 99.3418L499.91 89.2875L516.427 72.7706C516.427 72.7704 516.428 72.7702 516.428 72.77C518.23 70.9763 519.036 68.4127 518.586 65.8967L518.585 65.893C518.13 63.3878 516.477 61.2681 514.17 60.2156C507.41 57.1322 499.907 55.5 492.469 55.5C478.603 55.5 465.556 60.9002 455.749 70.7019L455.749 70.7024C441.729 84.7259 436.957 104.765 443.049 123.44L347.469 218.995L348.529 220.056L347.469 218.995C339.587 226.875 339.488 239.652 347.308 247.475L352.508 252.684L352.51 252.686C356.263 256.431 361.275 258.501 366.612 258.501C372.038 258.501 377.154 256.376 381 252.531L379.939 251.47L381 252.531L476.585 156.957C481.755 158.626 487.136 159.467 492.614 159.467C506.477 159.467 519.527 154.06 529.334 144.258L529.334 144.258C544.6 128.991 548.812 105.52 539.816 85.8371L539.812 85.8288C538.746 83.5348 536.626 81.8841 534.12 81.433ZM534.12 81.433L533.854 82.9091M534.12 81.433C534.12 81.4329 534.12 81.4329 534.119 81.4328L533.854 82.9091M533.854 82.9091C533.49 82.8435 533.12 82.814 532.753 82.814C531.075 82.814 529.505 83.4657 528.319 84.6452L538.451 86.4607C537.59 84.606 535.876 83.273 533.854 82.9091ZM362.434 242.764C363.525 243.858 365.003 244.461 366.586 244.461C368.26 244.461 369.852 243.796 371.059 242.587L362.434 242.764ZM362.434 242.764L363.493 241.702L363.493 241.702L363.493 241.702L363.491 241.7L363.485 241.694L363.46 241.669L363.365 241.574L363.007 241.217C362.701 240.911 362.268 240.48 361.763 239.975C360.752 238.966 359.451 237.665 358.288 236.501C356.587 234.798 356.585 231.877 358.47 229.997L358.471 229.996L403.644 184.825L404.084 184.386V184.353M362.434 242.764L363.493 241.702L363.496 241.705C364.297 242.508 365.389 242.961 366.586 242.961C367.855 242.961 369.067 242.459 369.997 241.528L369.998 241.526L415.181 196.356L415.62 195.917H415.659L469.163 142.432C469.163 142.432 469.163 142.432 469.164 142.432C470.625 140.966 472.579 140.147 474.653 140.147C475.744 140.147 476.806 140.38 477.795 140.82C482.479 142.884 487.46 143.935 492.605 143.941C502.329 143.941 511.473 140.158 518.362 133.279C526.084 125.557 529.854 114.743 528.826 103.981L519.199 113.606C517.747 115.059 515.75 115.89 513.698 115.89C513.502 115.89 513.304 115.882 513.108 115.865C513.106 115.865 513.104 115.865 513.101 115.865L492.863 114.309L492.858 114.309C489.02 114.001 486.012 110.991 485.715 107.163L485.715 107.163L484.155 86.9211L484.155 86.9205C483.981 84.6494 484.811 82.431 486.417 80.8289L496.057 71.1907C494.867 71.0728 493.672 71.013 492.477 71.013C482.746 71.013 473.611 74.7965 466.739 81.6704L466.738 81.671C456.007 92.3935 453.048 108.302 459.199 122.233C460.497 125.168 459.868 128.559 457.604 130.843L457.599 130.848L404.084 184.353M362.434 242.764C362.434 242.764 359.554 239.891 357.227 237.562M362.434 242.764L357.227 237.562M404.084 184.353L403.644 184.793L402.616 183.764L402.584 183.732M404.084 184.353V183.764V183.732H402.584M402.584 183.732V183.764L456.538 129.787L402.584 183.732ZM357.227 237.562C354.9 235.232 354.979 231.36 357.41 228.935L357.227 237.562ZM470.226 143.491L416.28 197.417L492.604 145.441C487.249 145.435 482.062 144.34 477.185 142.191C476.382 141.834 475.527 141.647 474.653 141.647C472.981 141.647 471.408 142.305 470.226 143.491Z" fill="white" stroke="white" stroke-width="3"/>
<rect x="22.5" y="307.5" width="270" height="270" rx="15" fill="#011226"/>
<path d="M252.065 419.843C259.167 411.381 258.064 398.765 249.602 391.664L195.004 345.851C186.543 338.751 173.928 339.854 166.828 348.315L153.681 363.982L123.781 352.834C113.779 349.105 102.612 353.887 98.4095 363.699L73.1344 422.702H71.9668C60.9211 422.702 51.9668 431.656 51.9668 442.702V527.996C51.9668 539.042 60.9211 547.996 71.9668 547.996H244.109C255.155 547.996 264.109 539.042 264.109 527.996V437.146C264.109 429.169 257.643 422.702 249.665 422.702L252.065 419.843ZM178.844 363.991C180.618 361.876 183.772 361.6 185.887 363.375L233.926 403.678C236.042 405.453 236.318 408.607 234.542 410.723L224.487 422.702H129.579L178.844 363.991ZM114.529 375.048C115.58 372.595 118.371 371.399 120.872 372.331L140.524 379.657L104.406 422.702H94.12L114.529 375.048ZM244.824 528.708H76.2544C73.493 528.708 71.2544 526.47 71.2544 523.708V446.987C71.2544 444.225 73.493 441.987 76.2544 441.987H239.827C242.588 441.987 244.827 444.225 244.827 446.987V528.706C244.827 528.707 244.826 528.708 244.824 528.708Z" fill="white"/>
<path d="M186.92 485.646C186.92 480.32 191.237 476.003 196.562 476.003H215.85C221.175 476.003 225.492 480.32 225.492 485.646C225.492 490.971 221.175 495.288 215.85 495.288H196.562C191.237 495.288 186.92 490.971 186.92 485.646Z" fill="white"/>
<path d="M307.5 322.5C307.5 314.216 314.216 307.5 322.5 307.5H562.5C570.784 307.5 577.5 314.216 577.5 322.5V562.5C577.5 570.784 570.784 577.5 562.5 577.5H322.5C314.216 577.5 307.5 570.784 307.5 562.5V322.5Z" fill="#EC910F"/>
<path fill-rule="evenodd" clip-rule="evenodd" d="M400.636 549.739H484.827C489.183 549.739 492.72 546.202 492.72 541.846C492.72 537.49 489.183 533.953 484.827 533.953H400.636C396.28 533.953 392.743 537.49 392.743 541.846C392.743 546.202 396.28 549.739 400.636 549.739ZM337.493 465.548H526.922C531.278 465.548 534.815 462.012 534.815 457.655C534.815 453.299 531.278 449.762 526.922 449.762H337.493C333.136 449.762 329.6 453.299 329.6 457.655C329.6 462.012 333.136 465.548 337.493 465.548Z" fill="#011226"/>
<path fill-rule="evenodd" clip-rule="evenodd" d="M555.863 383.988C555.862 356.38 533.482 334 505.874 334C469.192 334 416.27 334 379.588 334C351.98 334 329.6 356.38 329.6 383.988C329.6 409.701 329.6 442.467 329.6 468.179C329.6 495.787 351.98 518.168 379.588 518.168C416.27 518.168 469.192 518.168 505.874 518.168C533.482 518.168 555.862 495.787 555.863 468.179V383.988ZM540.077 383.988V468.179C540.077 487.069 524.764 502.382 505.874 502.382C469.192 502.382 416.27 502.382 379.588 502.382C360.699 502.382 345.386 487.069 345.385 468.18C345.385 468.179 345.385 383.988 345.385 383.988C345.386 365.098 360.699 349.786 379.588 349.786C416.27 349.786 469.192 349.786 505.874 349.786C524.764 349.786 540.077 365.098 540.077 383.988ZM442.731 475.151C447.342 475.151 451.084 478.894 451.084 483.504C451.084 488.115 447.342 491.858 442.731 491.858C438.121 491.858 434.378 488.115 434.378 483.504C434.378 478.894 438.121 475.151 442.731 475.151Z" fill="#011226"/>
</svg>
